<svg width="28" height="28" viewBox="0 0 28 28" fill="none" xmlns="http://www.w3.org/2000/svg">
<g clip-path="url(#clip0_103_62)">
<path d="M19.3386 7.83492C19.4049 7.94976 19.4229 8.08624 19.3886 8.21433C19.3543 8.34242 19.2705 8.45163 19.1556 8.51793L17.4236 9.51793C17.3087 9.58423 17.1722 9.6022 17.0442 9.56788C16.9161 9.53356 16.8069 9.44976 16.7405 9.33492C16.6742 9.22007 16.6563 9.0836 16.6906 8.95551C16.7249 8.82742 16.8087 8.71821 16.9236 8.6519L18.6556 7.6519C18.7705 7.5856 18.9069 7.56763 19.035 7.60195C19.1631 7.63628 19.2723 7.72007 19.3386 7.83492ZM15.9993 5.27108C16.0629 5.28802 16.1225 5.31733 16.1747 5.35734C16.2269 5.39734 16.2707 5.44725 16.3035 5.5042C16.3364 5.56116 16.3577 5.62404 16.3663 5.68925C16.3748 5.75446 16.3704 5.82072 16.3533 5.88422L15.8349 7.81628C15.8188 7.8807 15.7901 7.94128 15.7504 7.99447C15.7106 8.04767 15.6607 8.09242 15.6035 8.12611C15.5463 8.15981 15.483 8.18177 15.4172 8.19072C15.3514 8.19967 15.2845 8.19543 15.2203 8.17825C15.1562 8.16107 15.0962 8.13128 15.0437 8.09064C14.9912 8.04999 14.9473 7.9993 14.9146 7.94152C14.8819 7.88373 14.861 7.82002 14.8532 7.75408C14.8454 7.68815 14.8508 7.62133 14.8691 7.5575L15.3867 5.62594C15.421 5.49788 15.5048 5.38871 15.6196 5.32241C15.7344 5.25612 15.8709 5.23815 15.999 5.27244L15.9993 5.27108ZM19.8893 12.0088C19.8724 12.0723 19.8431 12.1319 19.8031 12.1841C19.7631 12.2363 19.7132 12.2801 19.6562 12.313C19.5992 12.3459 19.5364 12.3672 19.4711 12.3757C19.4059 12.3843 19.3397 12.3799 19.2762 12.3628L17.3436 11.8435C17.2792 11.8274 17.2186 11.7987 17.1654 11.7589C17.1122 11.7192 17.0675 11.6693 17.0338 11.6121C17.0001 11.5549 16.9781 11.4915 16.9692 11.4257C16.9602 11.36 16.9645 11.293 16.9817 11.2289C16.9988 11.1648 17.0286 11.1047 17.0693 11.0522C17.1099 10.9997 17.1606 10.9559 17.2184 10.9232C17.2762 10.8905 17.3399 10.8696 17.4058 10.8618C17.4717 10.854 17.5386 10.8594 17.6024 10.8777L19.534 11.3952C19.662 11.4296 19.7712 11.5134 19.8375 11.6282C19.9038 11.743 19.9218 11.8795 19.8875 12.0075L19.8893 12.0088ZM11.8255 5.82178C11.9403 5.75547 12.0768 5.73751 12.2049 5.77183C12.333 5.80615 12.4422 5.88995 12.5085 6.00479L13.5085 7.73684C13.5748 7.85168 13.5928 7.98816 13.5584 8.11625C13.5241 8.24434 13.4403 8.35355 13.3255 8.41985C13.2106 8.48616 13.0742 8.50413 12.9461 8.4698C12.818 8.43548 12.7088 8.35168 12.6425 8.23684L11.6425 6.50479C11.5762 6.38995 11.5582 6.25347 11.5925 6.12538C11.6268 5.99729 11.7106 5.88808 11.8255 5.82178ZM15.3187 11.4722C15.351 11.285 15.3293 11.0925 15.2562 10.9172C15.1831 10.7419 15.0616 10.5911 14.9059 10.4823C14.7502 10.3736 14.5667 10.3114 14.377 10.3031C14.1873 10.2948 13.9991 10.3407 13.8344 10.4354L5.95275 14.9859C5.15254 15.4479 5.35265 16.6545 6.25854 16.8335L9.27725 17.4301C9.48688 17.4718 9.68517 17.5578 9.85885 17.6824C10.0325 17.8069 10.1776 17.9672 10.2843 18.1524L11.8898 20.9332C12.3573 21.7429 13.5825 21.5251 13.7409 20.6034L15.3196 11.4717L15.3187 11.4722ZM6.45102 15.8529L14.3344 11.3014L12.7558 20.4332L11.1503 17.6524C10.9721 17.3436 10.73 17.0766 10.4401 16.8691C10.1503 16.6617 9.81942 16.5186 9.46973 16.4495L6.45188 15.8524L6.45102 15.8529Z" fill="#ED1D24"/>
</g>
<defs>
<clipPath id="clip0_103_62">
<rect width="20" height="20" fill="white" transform="translate(17.3206 0.339844) rotate(60)"/>
</clipPath>
</defs>
</svg>
